<svg width="128" height="128" viewBox="0 0 128 128" fill="none" xmlns="http://www.w3.org/2000/svg">
<circle cx="64" cy="64" r="63" fill="#1A0E25"/>
<g clip-path="url(#clip0_2_2)">
<path d="M63.5125 108.406L64.1908 108.001L82.8298 96.3082C82.8298 96.3082 87.8175 86.163 90.8101 75.0031C90.8101 75.0031 92.3064 68.916 93.304 65.8724C94.3015 62.8288 99.2892 58.7707 99.2892 58.7707C102.282 41.5237 98.7904 32.3929 98.7904 32.3929C98.7904 32.3929 96.7954 42.0309 89.3138 46.5963V46.5202C86.9546 36.2532 76.3458 28.5073 63.6122 28.5073H63.3878C50.6542 28.5073 40.0454 36.2532 37.6912 46.5202V46.5963C30.2046 42.0309 28.2095 32.3929 28.2095 32.3929C28.2095 32.3929 24.7182 41.5237 27.7108 58.7707C27.7108 58.7707 32.6985 62.8288 33.696 65.8724C34.6936 68.916 36.1899 75.0031 36.1899 75.0031C39.1825 86.163 44.1702 96.3082 44.1702 96.3082L56.5796 104.09L63.5125 108.406Z" fill="#F0F0E4" stroke="black" stroke-miterlimit="10"/>
<path d="M62.6646 85.3209H69.2334L69.5975 88.6841L72.5701 85.3209H76.5254C73.2584 89.4247 68.2608 92.0523 62.6646 92.0523C57.0684 92.0523 52.0707 89.4297 48.8038 85.3209H52.759L55.7317 88.6841L56.0958 85.3209H62.6646Z" fill="white" stroke="black" stroke-linejoin="round"/>
<path d="M60.6695 66.9376C57.8963 64.6803 54.2403 63.5643 50.4547 64.1527C46.7688 64.726 43.6714 66.8057 41.6863 69.6819C41.1327 64.523 44.6789 59.7852 49.7714 58.9939C54.8638 58.2025 59.7667 61.7331 60.6695 66.9326V66.9376Z" fill="white" stroke="black" stroke-miterlimit="10"/>
<path d="M65.5724 66.9376C68.3455 64.6803 72.0015 63.5643 75.7872 64.1527C79.5729 64.7412 82.5705 66.8057 84.5556 69.6819C85.1092 64.5231 81.5629 59.7852 76.4705 58.9939C71.3082 58.1873 66.4752 61.7331 65.5724 66.9326V66.9376Z" fill="white" stroke="black" stroke-miterlimit="10"/>
<path d="M71.388 59.1968V37.638C75.2951 37.5535 84.3062 39.3627 89.0944 47.2761C92.3364 44.486 99.5506 38.1452 98.8204 31.0435C101.813 48.0369 99.8179 58.2668 98.8204 58.4359V59.1968C93.0845 63.0013 92.087 67.0593 91.0894 72.8929C90.2914 77.5597 84.7717 91.4926 82.6104 96.227L71.388 103.329V90.1399C75.1787 88.7196 76.2926 85.9972 76.3757 84.8136H72.3856L71.388 85.8282V64.7767C78.1713 63.1535 83.1923 67.8202 84.8548 70.3565C84.8548 58.5477 75.877 57.9963 71.388 59.1968Z" fill="url(#paint0_linear_2_2)"/>
<path d="M82.361 95.9735L63.9065 108.148C65.9016 106.322 76.542 98.5943 81.6128 94.9589L92.3364 58.6895C100.317 54.0227 99.9842 38.4835 98.8204 31.2972C101.214 38.8047 100.483 52.6869 99.8179 58.6895C97.6233 59.0953 94.5808 63.424 93.3339 65.5376C90.3413 77.7119 84.7717 90.9008 82.361 95.9735Z" fill="url(#paint1_linear_2_2)" fill-opacity="0.2"/>
<path d="M63.9065 28.5073V108.148C68.2957 105.104 78.7033 98.9325 83.3585 96.2271C86.3511 89.3283 90.4244 75.9365 92.087 70.103C92.2865 64.2187 97.1578 60.2113 99.5685 58.9431C101.564 54.4792 99.901 39.1598 98.8204 32.0581C95.6282 42.6092 91.1726 45.9233 89.3437 46.2615C85.9521 33.0726 70.9724 28.93 63.9065 28.5073Z" fill="url(#paint2_linear_2_2)" fill-opacity="0.1"/>
<path d="M64.4053 28V107.641C68.7944 104.597 79.2021 98.4252 83.8573 95.7198C86.8499 88.821 90.9232 75.4292 92.5858 69.5957C92.7853 63.7114 97.6566 59.704 100.067 58.4359C102.062 53.9719 100.4 38.6526 99.3192 31.5509C96.127 42.102 91.6714 45.4161 89.8425 45.7543C86.4509 32.5654 71.4712 28.4227 64.4053 28Z" fill="url(#paint3_linear_2_2)" fill-opacity="0.1"/>
<path d="M63.9065 29.5218V109.162C68.2957 106.119 78.7033 99.947 83.3585 97.2416C86.3511 90.3428 90.4244 76.951 92.087 71.1175C92.2865 65.2332 97.1578 61.2258 99.5685 59.9577C101.564 55.4937 99.901 40.1743 98.8204 33.0726C95.6282 43.6237 91.1726 46.9379 89.3437 47.2761C85.9521 34.0872 70.9724 29.9445 63.9065 29.5218Z" fill="url(#paint4_linear_2_2)" fill-opacity="0.1"/>
<path d="M78.6202 99.017V88.3645M78.6202 88.3645V82.2773L71.388 76.4438V67.8203M78.6202 88.3645L86.1018 80.2483V70.6102M96.8253 61.4795V52.3487L92.087 47.5297V44.2325" stroke="#AAA79D" stroke-width="0.35"/>
</g>
<defs>
<linearGradient id="paint0_linear_2_2" x1="74.1313" y1="69.342" x2="97.0999" y2="73.5151" gradientUnits="userSpaceOnUse">
<stop stop-color="#D9D9D9" stop-opacity="0"/>
<stop offset="0.740385" stop-color="#848474"/>
</linearGradient>
<linearGradient id="paint1_linear_2_2" x1="-18.8893" y1="66.8057" x2="100.471" y2="69.6257" gradientUnits="userSpaceOnUse">
<stop stop-color="#ACA99A"/>
<stop offset="0.389423" stop-color="#1C1B1A"/>
<stop offset="0.6875"/>
<stop offset="1"/>
</linearGradient>
<linearGradient id="paint2_linear_2_2" x1="63.9065" y1="68.3275" x2="100.502" y2="68.3275" gradientUnits="userSpaceOnUse">
<stop stop-color="#97978D" stop-opacity="0.21"/>
<stop offset="0.245192" stop-color="#464541" stop-opacity="0.636781"/>
<stop offset="0.720847"/>
<stop offset="1"/>
</linearGradient>
<linearGradient id="paint3_linear_2_2" x1="64.4053" y1="67.8203" x2="101" y2="67.8203" gradientUnits="userSpaceOnUse">
<stop stop-color="#97978D" stop-opacity="0.21"/>
<stop offset="0.245192" stop-color="#464541"/>
<stop offset="0.720847"/>
<stop offset="1"/>
</linearGradient>
<linearGradient id="paint4_linear_2_2" x1="63.9065" y1="69.3421" x2="100.502" y2="69.3421" gradientUnits="userSpaceOnUse">
<stop stop-color="#97978D" stop-opacity="0.21"/>
<stop offset="0.245192" stop-color="#030308"/>
<stop offset="0.720847"/>
<stop offset="1"/>
</linearGradient>
<clipPath id="clip0_2_2">
<rect width="75" height="81" fill="white" transform="translate(26 28)"/>
</clipPath>
</defs>
</svg>
